<!DOCTYPE svg PUBLIC "-//W3C//DTD SVG 1.1//EN" "http://www.w3.org/Graphics/SVG/1.1/DTD/svg11.dtd">
<!-- Uploaded to: SVG Repo, www.svgrepo.com, Transformed by: SVG Repo Mixer Tools -->
<svg width="256px" height="256px" viewBox="0 0 64.00 64.00" id="TwoTone" xmlns="http://www.w3.org/2000/svg" fill="#000000" stroke="#000000" stroke-width="0.00064">
<g id="SVGRepo_bgCarrier" stroke-width="0"/>
<g id="SVGRepo_tracerCarrier" stroke-linecap="round" stroke-linejoin="round" stroke="#CCCCCC" stroke-width="0.768"/>
<g id="SVGRepo_iconCarrier"> <title/> <desc/> <g data-name="Stroke copy 3" id="Stroke_copy_3"> <path d="M11.73,51.08,7,52.34V11.77L3,12.84V58l5.49-1.46a37.07,37.07,0,0,1,23.35,1.4L32,58V52.34l-.14-.05A32,32,0,0,0,11.73,51.08Z" style="fill:#20262e"/> <path d="M57,11.77V52.34l-4.73-1.26a32,32,0,0,0-20.13,1.21l-.14.05V58l.16-.06a37.07,37.07,0,0,1,23.35-1.4L61,58V12.84Z" style="fill:#20262e"/> <path d="M21.36,45a10,10,0,0,1-9.63-10v-28L7,8.34v44l4.73-1.26a32,32,0,0,1,20.13,1.21l.14.05v-5l-.14-.05A31.82,31.82,0,0,0,21.36,45Z" style="fill:#99dcd8"/> <path d="M46.17,45.07A10,10,0,0,1,37,35V6.78a31,31,0,0,0-4.86,1.51L32,8.34v44l.14-.05a32,32,0,0,1,20.13-1.21L57,52.34v-5l-4.73-1.26A32.64,32.64,0,0,0,46.17,45.07Z" style="fill:#99dcd8"/> <path d="M27,26h0a25.43,25.43,0,0,0-14,0h0V14h0a25.43,25.43,0,0,1,14,0h0Z" style="fill:#80d3c9"/> <path d="M53,22l-2.15-.7A11.27,11.27,0,0,0,45.06,21H45V12h0a11.31,11.31,0,0,1,5.83.3L53,13Z" style="fill:#20262e"/> <path d="M37,47l2.15-.7A11.27,11.27,0,0,1,44.94,46H45V37h0a11.31,11.31,0,0,0-5.83.3L37,38Z" style="fill:#80d3c9"/> </g> <g data-name="Stroke Close copy 3" id="Stroke_Close_copy_3"> <path d="M61.26,11.87,58,11V8.34a1,1,0,0,0-.74-1L52.52,6.11A33.21,33.21,0,0,0,32,7.28,33.28,33.28,0,0,0,11.48,6.11L6.74,7.38a1,1,0,0,0-.74,1V11l-3.26.86a1,1,0,0,0-.74,1V58a1,1,0,0,0,.39.79,1,1,0,0,0,.87.18L8.75,57.5a36.31,36.31,0,0,1,22.72,1.37l.16.06a1,1,0,0,0,.74,0l.16-.06A36.31,36.31,0,0,1,55.25,57.5L60.74,59A1.15,1.15,0,0,0,61,59a1,1,0,0,0,1-1V12.84A1,1,0,0,0,61.26,11.87ZM52,8.05l4,1.06V51l-3.48-.93A33.21,33.21,0,0,0,33,50.9V9A31.2,31.2,0,0,1,52,8.05ZM8,9.11l4-1.06A31.2,31.2,0,0,1,31,9V50.9a33.24,33.24,0,0,0-19.52-.79L8,51Zm.23,46.46L4,56.7V13.61l2-.53V52.34a1,1,0,0,0,.39.8,1,1,0,0,0,.61.2,1.15,1.15,0,0,0,.26,0L12,52.05a31.2,31.2,0,0,1,19,1v3.51A38.47,38.47,0,0,0,8.23,55.57ZM60,56.7l-4.23-1.13a38.47,38.47,0,0,0-22.77,1V53a31.2,31.2,0,0,1,19-1l4.73,1.26a1.15,1.15,0,0,0,.26,0,1,1,0,0,0,.61-.2,1,1,0,0,0,.39-.8V13.08l2,.53Z" style="fill:#20262e"/> <path d="M13.27,27a24.44,24.44,0,0,1,13.46,0A.84.84,0,0,0,27,27a1,1,0,0,0,1-1V14a1,1,0,0,0-.73-1,26.42,26.42,0,0,0-14.54,0A1,1,0,0,0,12,14V26a1,1,0,0,0,.4.8A1,1,0,0,0,13.27,27ZM14,14.77a24.38,24.38,0,0,1,12,0v9.94a26.43,26.43,0,0,0-12,0Z" style="fill:#20262e"/> <path d="M44.4,21.77a1.07,1.07,0,0,0,.87.2,10.25,10.25,0,0,1,5.27.28l2.15.7A1.12,1.12,0,0,0,53,23a1.06,1.06,0,0,0,.59-.19A1,1,0,0,0,54,22V13a1,1,0,0,0-.69-.95l-2.17-.7A12.33,12.33,0,0,0,44.79,11,1,1,0,0,0,44,12v9A1,1,0,0,0,44.4,21.77ZM46,12.84a10.33,10.33,0,0,1,4.52.41l1.48.48v6.89l-.84-.27a12.1,12.1,0,0,0-3.78-.6,12.77,12.77,0,0,0-1.38.08Z" style="fill:#20262e"/> <path d="M27.27,30a26.42,26.42,0,0,0-14.54,0A1,1,0,1,0,13.27,32a24.44,24.44,0,0,1,13.46,0A.84.84,0,0,0,27,32a1,1,0,0,0,.27-2Z" style="fill:#20262e"/> <path d="M27.27,35a26.42,26.42,0,0,0-14.54,0A1,1,0,0,0,13.27,37a24.44,24.44,0,0,1,13.46,0A.84.84,0,0,0,27,37a1,1,0,0,0,.27-2Z" style="fill:#20262e"/> <path d="M27.27,40a26.42,26.42,0,0,0-14.54,0A1,1,0,1,0,13.27,42a24.44,24.44,0,0,1,13.46,0A.84.84,0,0,0,27,42a1,1,0,0,0,.27-2Z" style="fill:#20262e"/> <path d="M36,15l.24,0,4-1A1,1,0,1,0,39.76,12l-4,1A1,1,0,0,0,36,15Z" style="fill:#20262e"/> <path d="M36,19a1,1,0,0,0,.24,0l4-1A1,1,0,1,0,39.76,16l-4,1A1,1,0,0,0,36,19Z" style="fill:#20262e"/> <path d="M36,24a1,1,0,0,0,.24,0l4-1A1,1,0,1,0,39.76,21l-4,1A1,1,0,0,0,36,24Z" style="fill:#20262e"/> <path d="M45.21,36a12.33,12.33,0,0,0-6.35.33l-2.17.7A1,1,0,0,0,36,38v9a1,1,0,0,0,.41.81A1.06,1.06,0,0,0,37,48a1.12,1.12,0,0,0,.31,0l2.15-.7A10.34,10.34,0,0,1,44.79,47a1,1,0,0,0,.84-.2A1,1,0,0,0,46,46V37A1,1,0,0,0,45.21,36ZM44,44.83a12.2,12.2,0,0,0-5.16.52l-.84.27V38.73l1.48-.48A10.33,10.33,0,0,1,44,37.84Z" style="fill:#20262e"/> <path d="M36,28.27a1,1,0,0,0,1.23.69,24.44,24.44,0,0,1,13.46,0A.84.84,0,0,0,51,29a1,1,0,0,0,.27-2,26.42,26.42,0,0,0-14.54,0A1,1,0,0,0,36,28.27Z" style="fill:#20262e"/> <path d="M37.27,34a24.44,24.44,0,0,1,13.46,0A.84.84,0,0,0,51,34a1,1,0,0,0,.27-2,26.42,26.42,0,0,0-14.54,0A1,1,0,1,0,37.27,34Z" style="fill:#20262e"/> <path d="M53.24,38l-4-1A1,1,0,1,0,48.76,39l4,1A1,1,0,0,0,54,39.24,1,1,0,0,0,53.24,38Z" style="fill:#20262e"/> </g> </g>
</svg>